#!OML:ASF I:\Actors\actors\Patient Classification 1\Patient 1\Session 1\Subject1.ASF
:FULLY-SPECIFIED
:DEGREES
2105
root -1.26943 17.3966 8.20801 5.82771 -7.87903 -13.2956
lowerback 7.93994 3.01304 5.88353
upperback -7.57887 5.39063 4.37418
thorax -12.6656 2.28831 0.502253
lowerneck -7.25419 -2.72447 0.147918
upperneck 9.48426 -4.89304 11.0518
head 4.31541 -1.81193 3.08014
rclavicle -1.3418e-014 1.47101e-014
rhumerus -53.4425 -12.6697 -68.6093
rradius 41.8135
rwrist 33.2817
rhand 186.998 153.954
rfingers 7.12502
rthumb 32.2738 -1133.2
lclavicle -1.3418e-014 1.47101e-014
lhumerus -46.9765 34.7013 56.7747
lradius 19.7349
lwrist -46.6211
lhand -14.3209 10.0583
lfingers 7.12502
lthumb 11.8197 39.7047
rfemur 1.84287 11.7454 38.6909
rtibia 3.62218
rfoot -11.7453 -17.8347
rtoes 14.7698
lfemur -22.3752 -19.3437 4.43018
ltibia 46.7851
lfoot 17.5985 18.1707
ltoes -2.92533
2106
root -1.25653 17.3973 8.19746 5.64169 -8.04123 -13.4674
lowerback 8.14457 3.12532 6.04707
upperback -7.39439 5.57794 4.44885
thorax -12.5675 2.37047 0.449953
lowerneck -7.29862 -2.73611 0.257798
upperneck 9.39969 -4.88894 10.836
head 4.28882 -1.81966 2.99491
rclavicle 3.2054e-015 -2.84262e-014
rhumerus -52.8512 -12.2768 -69.1671
rradius 41.932
rwrist 33.2206
rhand 187.178 154.576
rfingers 7.12502
rthumb 32.4455 -1132.54
lclavicle 3.2054e-015 -2.84262e-014
lhumerus -46.4807 34.3181 57.5028
lradius 19.8342
lwrist -46.0827
lhand -14.1464 10.0833
lfingers 7.12502
lthumb 11.9879 39.72
rfemur 2.04107 11.7461 38.8728
rtibia 3.64463
rfoot -11.6886 -17.787
rtoes 14.8154
lfemur -23.5729 -18.5507 4.67074
ltibia 48.0752
lfoot 21.0425 17.3194
ltoes -1.01623
2107
root -1.24483 17.3962 8.19 5.40493 -8.20856 -13.5447
lowerback 8.34645 3.21682 6.09568
upperback -7.20099 5.7206 4.52646
thorax -12.4684 2.4422 0.471798
lowerneck -7.25979 -2.74204 0.271841
upperneck 9.22879 -4.86481 10.711
head 4.22507 -1.82238 2.95571
rclavicle -6.28657e-015 5.71506e-014
rhumerus -52.2289 -11.7754 -69.7487
rradius 42.092
rwrist 33.0386
rhand 187.293 154.872
rfingers 7.12502
rthumb 32.5549 -1132.22
lclavicle -6.28657e-015 5.71506e-014
lhumerus -46.1507 34.1332 58.0572
lradius 19.9487
lwrist -45.6206
lhand -14.1138 10.0532
lfingers 7.12502
lthumb 12.0194 39.688
rfemur 2.30904 11.7255 38.963
rtibia 3.61894
rfoot -11.6431 -17.7015
rtoes 14.8274
lfemur -24.4958 -17.6793 4.80691
ltibia 48.9966
lfoot 24.4192 16.6725
ltoes -0.0544552
2108
root -1.23341 17.3944 8.18417 5.21445 -8.32083 -13.6086
lowerback 8.54058 3.27196 6.18455
upperback -7.05893 5.81969 4.57112
thorax -12.418 2.48582 0.443378
lowerneck -7.24784 -2.73512 0.296753
upperneck 9.14404 -4.83411 10.579
head 4.19139 -1.81731 2.91286
rclavicle 1.56791e-014 4.73108e-014
rhumerus -51.6807 -11.3048 -70.3084
rradius 42.2066
rwrist 33.0377
rhand 187.184 155.008
rfingers 7.12502
rthumb 32.4504 -1132.11
lclavicle 1.56791e-014 4.73108e-014
lhumerus -45.9368 34.0495 58.4011
lradius 20.0122
lwrist -45.1897
lhand -14.2517 9.87469
lfingers 7.12502
lthumb 11.8864 39.5173
rfemur 2.5151 11.7562 39.0546
rtibia 3.64037
rfoot -11.649 -17.7127
rtoes 15.014
lfemur -25.3075 -16.7056 4.97065
ltibia 49.6691
lfoot 27.7297 15.8587
ltoes -0.936648
2109
root -1.22226 17.3933 8.18056 5.08009 -8.34886 -13.7022
lowerback 8.71029 3.28818 6.36177
upperback -6.97021 5.87659 4.57642
thorax -12.4027 2.49787 0.332302
lowerneck -7.27312 -2.68545 0.456046
upperneck 9.16172 -4.76633 10.3902
head 4.18916 -1.78688 2.8325
rclavicle 4.76338e-014 8.66701e-014
rhumerus -51.2518 -10.9584 -70.8144
rradius 42.3635
rwrist 32.9993
rhand 187.111 155.081
rfingers 7.12502
rthumb 32.3809 -1132.05
lclavicle 4.76338e-014 8.66701e-014
lhumerus -45.7584 33.8902 58.6559
lradius 20.0673
lwrist -44.7242
lhand -14.3844 9.75769
lfingers 7.12502
lthumb 11.7585 39.4076
rfemur 2.61254 11.7991 39.1864
rtibia 3.76141
rfoot -11.6732 -17.8393
rtoes 14.931
lfemur -26.043 -15.7824 5.26957
ltibia 50.1295
lfoot 30.5252 15.5431
ltoes 0.971612
2110
root -1.21004 17.3931 8.18308 4.96168 -8.33105 -13.778
lowerback 8.79868 3.28376 6.59024
upperback -6.90402 5.90196 4.5436
thorax -12.3546 2.48954 0.162169
lowerneck -7.23726 -2.64542 0.489778
upperneck 9.13045 -4.71163 10.3952
head 4.17018 -1.76089 2.8323
rclavicle -5.64051e-015 -3.18055e-015
rhumerus -50.9103 -10.7548 -71.2061
rradius 42.4989
rwrist 32.8961
rhand 187.048 155.145
rfingers 7.12502
rthumb 32.3217 -1132
lclavicle -5.64051e-015 -3.18055e-015
lhumerus -45.683 33.6815 58.8349
lradius 20.185
lwrist -44.3678
lhand -14.4216 9.83665
lfingers 7.12502
lthumb 11.7225 39.4887
rfemur 2.68041 11.8497 39.2797
rtibia 3.88909
rfoot -11.6904 -17.9938
rtoes 14.6546
lfemur -26.597 -15.0442 5.68974
ltibia 50.2855
lfoot 33.1599 12.2717
ltoes -3.42139
2111
root -1.19797 17.3944 8.19022 4.8373 -8.24919 -13.7735
lowerback 8.83583 3.27105 6.78209
upperback -6.85996 5.90368 4.47533
thorax -12.3003 2.47165 -0.0191975
lowerneck -7.13191 -2.65453 0.329687
upperneck 9.07057 -4.71691 10.5878
head 4.14258 -1.76457 2.9187
rclavicle -6.67916e-014 -5.59579e-014
rhumerus -50.6643 -10.7381 -71.4285
rradius 42.5394
rwrist 32.8627
rhand 186.931 155.239
rfingers 7.12502
rthumb 32.2102 -1131.92
lclavicle -6.67916e-014 -5.59579e-014
lhumerus -45.7303 33.5609 58.8926
lradius 20.307
lwrist -44.1816
lhand -14.5046 10.0158
lfingers 7.12502
lthumb 11.6425 39.6723
rfemur 2.76353 11.9706 39.2803
rtibia 3.99681
rfoot -11.7577 -18.2614
rtoes 14.7564
lfemur -26.9974 -14.4053 6.13549
ltibia 50.3214
lfoot 34.7855 9.92615
ltoes -5.6152
2112
root -1.18923 17.3957 8.19627 4.72554 -8.02419 -13.6747
lowerback 8.8799 3.23352 6.8748
upperback -6.85501 5.85994 4.381
thorax -12.3032 2.43716 -0.167306
lowerneck -7.05515 -2.7123 0.288469
upperneck 9.09473 -4.78827 10.5696
head 4.14103 -1.80332 2.91633
rclavicle 1.83876e-014 8.5875e-014
rhumerus -50.5236 -10.8241 -71.5307
rradius 42.5616
rwrist 32.8851
rhand 186.818 155.248
rfingers 7.12502
rthumb 32.1022 -1131.94
lclavicle 1.83876e-014 8.5875e-014
lhumerus -45.7736 33.417 58.9723
lradius 20.3948
lwrist -43.9629
lhand -14.761 10.1473
lfingers 7.12502
lthumb 11.3952 39.8176
rfemur 2.81286 12.0358 39.1881
rtibia 4.08699
rfoot -11.8634 -18.6064
rtoes 14.8901
lfemur -27.3897 -13.736 6.56586
ltibia 50.3712
lfoot 35.6762 7.44497
ltoes -8.59963
2113
root -1.18409 17.3979 8.2033 4.59239 -7.72012 -13.588
lowerback 8.92735 3.16304 6.95403
upperback -6.81562 5.77011 4.31422
thorax -12.2752 2.38501 -0.269515
lowerneck -7.04304 -2.75677 0.236084
upperneck 9.04246 -4.82847 10.4917
head 4.12413 -1.83149 2.89851
rclavicle 2.27608e-014 1.39149e-015
rhumerus -50.3435 -10.959 -71.5473
rradius 42.5365
rwrist 32.9038
rhand 186.723 155.205
rfingers 7.12502
rthumb 32.0117 -1132
lclavicle 2.27608e-014 1.39149e-015
lhumerus -45.7271 33.2325 59.1752
lradius 20.4494
lwrist -43.6544
lhand -15.1446 10.1285
lfingers 7.12502
lthumb 11.0253 39.8189
rfemur 2.8713 12.0251 39.1323
rtibia 4.19517
rfoot -11.9755 -18.9523
rtoes 14.8138
lfemur -27.6661 -12.9588 7.05629
ltibia 50.3126
lfoot 36.1833 4.90106
ltoes -11.9258
2114
root -1.18161 17.4026 8.21275 4.38611 -7.43295 -13.4792
lowerback 9.03408 3.05859 6.95526
upperback -6.72092 5.62831 4.27931
thorax -12.2328 2.31759 -0.287901
lowerneck -7.0794 -2.70616 0.146117
upperneck 8.89757 -4.7344 10.4728
head 4.08238 -1.79418 2.91266
rclavicle -4.1869e-014 -3.39922e-014
rhumerus -50.1112 -11.0478 -71.5516
rradius 42.4794
rwrist 32.7815
rhand 186.715 155.055
rfingers 7.12502
rthumb 32.0046 -1132.15
lclavicle -4.1869e-014 -3.39922e-014
lhumerus -45.7462 33.2861 59.2332
lradius 20.4436
lwrist -43.4586
lhand -15.4939 9.96328
lfingers 7.12502
lthumb 10.6884 39.6714
rfemur 3.01988 12.0608 39.0858
rtibia 4.31438
rfoot -12.1041 -19.3506
rtoes 14.9194
lfemur -27.7024 -11.9932 7.49547
ltibia 50.0847
lfoot 36.4863 2.68605
ltoes -13.9978
